<?xml version="1.0" encoding="UTF-8" standalone="no"?>
<!-- Created with Inkscape (http://www.inkscape.org/) -->

<svg
   xmlns:dc="http://purl.org/dc/elements/1.1/"
   xmlns:cc="http://creativecommons.org/ns#"
   xmlns:rdf="http://www.w3.org/1999/02/22-rdf-syntax-ns#"
   xmlns:svg="http://www.w3.org/2000/svg"
   xmlns="http://www.w3.org/2000/svg"
   xmlns:sodipodi="http://sodipodi.sourceforge.net/DTD/sodipodi-0.dtd"
   xmlns:inkscape="http://www.inkscape.org/namespaces/inkscape"
   width="128.72134mm"
   height="29.448849mm"
   viewBox="0 0 128.72134 29.448849"
   version="1.1"
   id="svg484"
   sodipodi:docname="commonscaretakerslogo-flat.svg"
   inkscape:version="0.92.1 r15371">
  <defs
     id="defs478" />
  <sodipodi:namedview
     id="base"
     pagecolor="#ffffff"
     bordercolor="#666666"
     borderopacity="1.0"
     inkscape:pageopacity="0.0"
     inkscape:pageshadow="2"
     inkscape:zoom="1.4"
     inkscape:cx="169.35421"
     inkscape:cy="215.00924"
     inkscape:document-units="mm"
     inkscape:current-layer="layer1"
     showgrid="false"
     inkscape:window-width="1920"
     inkscape:window-height="1032"
     inkscape:window-x="0"
     inkscape:window-y="0"
     inkscape:window-maximized="1"
     fit-margin-top="0"
     fit-margin-left="0"
     fit-margin-right="0"
     fit-margin-bottom="0" />
  <metadata
     id="metadata481">
    <rdf:RDF>
      <cc:Work
         rdf:about="">
        <dc:format>image/svg+xml</dc:format>
        <dc:type
           rdf:resource="http://purl.org/dc/dcmitype/StillImage" />
        <dc:title></dc:title>
      </cc:Work>
    </rdf:RDF>
  </metadata>
  <g
     inkscape:label="Layer 1"
     inkscape:groupmode="layer"
     id="layer1"
     transform="translate(-50.921956,-58.650166)">
    <text
       id="text1765"
       y="71.890518"
       x="116.02684"
       style="font-style:normal;font-variant:normal;font-weight:normal;font-stretch:normal;font-size:12.07731915px;line-height:9.79394436px;font-family:'Josefin Slab';-inkscape-font-specification:'Josefin Slab';font-variant-ligatures:normal;font-variant-caps:normal;font-variant-numeric:normal;font-feature-settings:normal;text-align:center;letter-spacing:0px;word-spacing:0px;writing-mode:lr-tb;text-anchor:middle;fill:#000000;fill-opacity:1;stroke:none;stroke-width:0.12580542px;stroke-linecap:butt;stroke-linejoin:miter;stroke-opacity:1"
       xml:space="preserve"><tspan
         style="font-style:normal;font-variant:normal;font-weight:bold;font-stretch:normal;font-size:12.07731915px;line-height:9.79394436px;font-family:'Josefin Slab';-inkscape-font-specification:'Josefin Slab, Bold';font-variant-ligatures:normal;font-variant-caps:normal;font-variant-numeric:normal;font-feature-settings:normal;text-align:center;writing-mode:lr-tb;text-anchor:middle;stroke-width:0.12580542px"
         y="71.890518"
         x="116.02684"
         id="tspan1759"
         sodipodi:role="line">commons</tspan><tspan
         style="font-style:normal;font-variant:normal;font-weight:bold;font-stretch:normal;font-size:12.07731915px;line-height:9.79394436px;font-family:'Josefin Slab';-inkscape-font-specification:'Josefin Slab, Bold';font-variant-ligatures:normal;font-variant-caps:normal;font-variant-numeric:normal;font-feature-settings:normal;text-align:center;writing-mode:lr-tb;text-anchor:middle;stroke-width:0.12580542px"
         y="81.684464"
         x="116.02684"
         sodipodi:role="line"
         id="tspan1867">caretakers</tspan></text>
    <path
       style="color:#000000;font-style:normal;font-variant:normal;font-weight:normal;font-stretch:normal;font-size:medium;line-height:normal;font-family:sans-serif;font-variant-ligatures:normal;font-variant-position:normal;font-variant-caps:normal;font-variant-numeric:normal;font-variant-alternates:normal;font-feature-settings:normal;text-indent:0;text-align:start;text-decoration:none;text-decoration-line:none;text-decoration-style:solid;text-decoration-color:#000000;letter-spacing:normal;word-spacing:normal;text-transform:none;writing-mode:lr-tb;direction:ltr;text-orientation:mixed;dominant-baseline:auto;baseline-shift:baseline;text-anchor:start;white-space:normal;shape-padding:0;clip-rule:nonzero;display:inline;overflow:visible;visibility:visible;opacity:1;isolation:auto;mix-blend-mode:normal;color-interpolation:sRGB;color-interpolation-filters:linearRGB;solid-color:#000000;solid-opacity:1;vector-effect:none;fill:#008000;fill-opacity:1;fill-rule:evenodd;stroke:none;stroke-width:1.83261025px;stroke-linecap:butt;stroke-linejoin:miter;stroke-miterlimit:4;stroke-dasharray:none;stroke-dashoffset:0;stroke-opacity:1;color-rendering:auto;image-rendering:auto;shape-rendering:auto;text-rendering:auto;enable-background:accumulate"
       d="m 311.56445,221.66992 c -1.58205,0 -2.92187,1.33966 -2.92187,2.92188 v 39.69922 a 10.366948,11.097015 0 0 0 -0.38867,-0.0137 10.366948,11.097015 0 0 0 -3.31446,0.59375 c -4.31952,-8.51952 -10.14766,-13.77573 -16.95507,-16.74218 -4.50528,-1.96322 -9.40141,-2.93964 -14.56836,-3.25977 -5.16696,-0.32012 -11.84218,0.90203 -17.39258,1.54688 -22.20154,2.57944 -46.04098,5.72497 -63.50196,-1.76368 l 0.0625,5.1543 c 18.41918,7.89959 42.95454,0.0862 64.89454,-2.46289 9.39338,-1.09135 18.28106,-1.22179 25.99218,1.0918 -3.24265,-0.59707 -6.64379,-0.76643 -10.16406,-0.60352 -5.16827,0.23918 -11.54277,2.19096 -17.08984,3.42578 -11.09423,2.46964 -21.76223,5.17555 -32.78907,7.31446 -11.02676,2.1389 -22.16386,-0.70454 -30.86328,-4.43555 l 0.0195,5.05859 c 9.24065,3.96312 20.01688,3.3445 31.19727,1.17578 11.18046,-2.1687 22.81642,-5.90225 33.79297,-8.3457 9.1814,-2.04383 17.88387,-3.16198 25.45312,-1.81055 -3.14055,-0.23424 -6.42269,-0.049 -9.81445,0.45704 -5.16682,0.77076 -10.11075,2.97277 -15.6543,4.76757 -11.08709,3.58962 -23.165,7.71348 -34.18359,10.68164 -11.01859,2.9682 -22.22462,1.03867 -30.89453,-2.67968 l 0.10351,4.69531 c 9.27016,3.97576 20.07511,2.76981 31.26368,-0.24414 11.18856,-3.01396 22.82289,-7.85986 33.80664,-11.41602 9.65547,-3.1261 18.78672,-5.22702 26.59961,-4.3125 -8.08975,0.0442 -16.85908,3.72217 -26.46289,7.87305 -11.02767,4.76627 -23.15953,10.19922 -34.13282,14.03906 -10.97336,3.83984 -22.50893,2.0139 -31.14843,-1.6914 l -0.0488,5.09961 c 9.30063,3.98878 20.65015,2.21251 31.80664,-1.69141 11.15642,-3.90393 22.73204,-9.92205 33.67187,-14.65039 10.93991,-4.72834 21.22167,-8.11331 29.61328,-6.93946 6.24976,0.87429 11.56279,4.17108 15.61719,11.50782 a 10.366948,11.097015 0 0 0 -5.28125,9.66211 10.366948,11.097015 0 0 0 10.36524,11.09765 10.366948,11.097015 0 0 0 10.36718,-11.09765 10.366948,11.097015 0 0 0 -5.63281,-9.86914 V 226.0156 c 82.40267,10.79496 164.80434,13.07998 247.20703,0 v 38.19336 a 10.366948,11.097015 0 0 0 -7.38867,10.62305 10.366948,11.097015 0 0 0 10.36719,11.09766 10.366948,11.097015 0 0 0 10.36719,-11.09766 10.366948,11.097015 0 0 0 -5.27735,-9.66015 c 4.05445,-7.33174 9.36566,-10.6358 15.61328,-11.50977 8.39161,-1.1739 18.67337,2.21112 29.61328,6.93945 10.93985,4.72834 22.51547,10.74647 33.67188,14.65039 11.15652,3.90393 22.50406,5.68024 31.80469,1.69141 l -0.0469,-5.09961 c -8.63951,3.7053 -20.17507,5.53124 -31.14844,1.69141 -10.97329,-3.83984 -23.10712,-9.27474 -34.13476,-14.04102 -9.6046,-4.15122 -18.37261,-7.82752 -26.46289,-7.87109 7.81292,-0.91457 16.94409,1.18637 26.59961,4.3125 10.98376,3.55616 22.62002,8.40206 33.80859,11.41601 11.18857,3.01396 21.99156,4.2199 31.26172,0.24414 l 0.10547,-4.69531 c -8.66994,3.71836 -19.87592,5.64789 -30.89453,2.67969 -11.01857,-2.96817 -23.0965,-7.09203 -34.1836,-10.68164 -5.54354,-1.79481 -10.48745,-3.99678 -15.65429,-4.76758 -3.3916,-0.50597 -6.67405,-0.69122 -9.81446,-0.45703 7.56925,-1.35143 16.27173,-0.23329 25.45313,1.81055 10.97654,2.44341 22.61252,6.17699 33.79297,8.3457 11.18041,2.16871 21.95463,2.78733 31.19531,-1.17578 l 0.0195,-5.0586 c -8.69941,3.73101 -19.83846,6.57446 -30.86523,4.43555 -11.02685,-2.13891 -21.69288,-4.84481 -32.78711,-7.31445 -5.54639,-1.23468 -11.91995,-3.18622 -17.08789,-3.42578 h -0.002 c -3.51956,-0.16276 -6.92004,0.007 -10.16211,0.60351 7.71113,-2.31358 16.59685,-2.18315 25.99024,-1.0918 21.94001,2.54905 46.47534,10.36248 64.89453,2.46289 l 0.0625,-5.15429 c -17.46096,7.48865 -41.29845,4.34311 -63.5,1.76367 -5.55039,-0.64485 -12.22562,-1.86696 -17.39258,-1.54688 -5.16695,0.32013 -10.06504,1.29656 -14.57031,3.25977 -6.80746,2.96645 -12.63416,8.22266 -16.95313,16.74219 a 10.366948,11.097015 0 0 0 -1.94531,-0.48828 v -39.25 c 0,-1.58222 -1.34374,-2.92188 -2.92578,-2.92188 z m 248.63086,98.88281 v 8.07422 H 360.3418 v 4.34571 h 201.27734 c 1.58207,0 2.92578,-1.33959 2.92578,-2.92188 v -9.49805 z"
       transform="scale(0.26458333)"
       id="path1783"
       inkscape:connector-curvature="0" />
    <path
       style="color:#000000;font-style:normal;font-variant:normal;font-weight:normal;font-stretch:normal;font-size:medium;line-height:normal;font-family:sans-serif;font-variant-ligatures:normal;font-variant-position:normal;font-variant-caps:normal;font-variant-numeric:normal;font-variant-alternates:normal;font-feature-settings:normal;text-indent:0;text-align:start;text-decoration:none;text-decoration-line:none;text-decoration-style:solid;text-decoration-color:#000000;letter-spacing:normal;word-spacing:normal;text-transform:none;writing-mode:lr-tb;direction:ltr;text-orientation:mixed;dominant-baseline:auto;baseline-shift:baseline;text-anchor:start;white-space:normal;shape-padding:0;clip-rule:nonzero;display:inline;overflow:visible;visibility:visible;opacity:1;isolation:auto;mix-blend-mode:normal;color-interpolation:sRGB;color-interpolation-filters:linearRGB;solid-color:#000000;solid-opacity:1;vector-effect:none;fill:#008000;fill-opacity:1;fill-rule:evenodd;stroke:none;stroke-width:0.31171244px;stroke-linecap:butt;stroke-linejoin:miter;stroke-miterlimit:4;stroke-dasharray:none;stroke-dashoffset:0;stroke-opacity:1;color-rendering:auto;image-rendering:auto;shape-rendering:auto;text-rendering:auto;enable-background:accumulate"
       d="m 84.365234,81.732422 v 3.732422 h 3.136719 v -0.310547 h -2.824219 v -3.421875 z"
       id="path1797"
       inkscape:connector-curvature="0" />
    <path
       style="color:#000000;font-style:normal;font-variant:normal;font-weight:normal;font-stretch:normal;font-size:medium;line-height:normal;font-family:sans-serif;font-variant-ligatures:normal;font-variant-position:normal;font-variant-caps:normal;font-variant-numeric:normal;font-variant-alternates:normal;font-feature-settings:normal;text-indent:0;text-align:start;text-decoration:none;text-decoration-line:none;text-decoration-style:solid;text-decoration-color:#000000;letter-spacing:normal;word-spacing:normal;text-transform:none;writing-mode:lr-tb;direction:ltr;text-orientation:mixed;dominant-baseline:auto;baseline-shift:baseline;text-anchor:start;white-space:normal;shape-padding:0;clip-rule:nonzero;display:inline;overflow:visible;visibility:visible;opacity:1;isolation:auto;mix-blend-mode:normal;color-interpolation:sRGB;color-interpolation-filters:linearRGB;solid-color:#000000;solid-opacity:1;vector-effect:none;fill:#008000;fill-opacity:1;fill-rule:evenodd;stroke:none;stroke-width:0.31171244px;stroke-linecap:butt;stroke-linejoin:miter;stroke-miterlimit:4;stroke-dasharray:none;stroke-dashoffset:0;stroke-opacity:1;color-rendering:auto;image-rendering:auto;shape-rendering:auto;text-rendering:auto;enable-background:accumulate"
       d="m 146.88281,60.919922 -0.2207,0.101562 c -0.87321,0.398619 -1.86328,0.495235 -2.88086,0.560547 l 0.0195,0.310547 c 0.94826,-0.06086 1.88981,-0.192926 2.76953,-0.544922 v 3.390625 h 0.3125 z"
       id="path1799"
       inkscape:connector-curvature="0" />
  </g>
</svg>
