<?xml version="1.0" encoding="UTF-8" standalone="no"?>
<svg
   xmlns:dc="http://purl.org/dc/elements/1.1/"
   xmlns:cc="http://creativecommons.org/ns#"
   xmlns:rdf="http://www.w3.org/1999/02/22-rdf-syntax-ns#"
   xmlns:svg="http://www.w3.org/2000/svg"
   xmlns="http://www.w3.org/2000/svg"
   viewBox="0 0 551.19214 238.55617"
   height="238.55617"
   width="551.19214"
   id="svg2"
   version="1.1">
  <metadata
     id="metadata8">
    <rdf:RDF>
      <cc:Work
         rdf:about="">
        <dc:format>image/svg+xml</dc:format>
        <dc:type
           rdf:resource="http://purl.org/dc/dcmitype/StillImage" />
        <dc:title></dc:title>
      </cc:Work>
    </rdf:RDF>
  </metadata>
  <defs
     id="defs6" />
  <path
     id="path3772"
     d="m 38.706327,238.39544 c -11.12923,-1.13298 -19.56903,-4.65499 -25.69147,-10.7213 -4.33307,-4.29334 -7.30426,-9.25929 -9.51698,-15.90633 -3.66031998,-10.99568 -4.54098,-26.05984 -2.20022,-37.63593 4.01566,-19.85922 17.30303,-30.94666 38.04867,-31.74912 9.794692,-0.37887 18.263878,1.49742 25.435038,5.63494 3.27236,1.88805 7.59843,6.11082 9.3781,9.15418 2.26703,3.87678 3.56553,8.78168 3.58052,13.52498 l 0.006,2.00499 -9.04,-0.085 -9.04,-0.085 -0.19559,-3.04 c -0.32665,-5.07699 -2.13737,-8.47071 -5.88441,-11.0288 -3.080659,-2.10316 -5.619338,-2.79508 -10.879998,-2.96538 -5.45882,-0.17671 -8.16181,0.3091 -11.84,2.12798 -9.3824,4.63962 -13.74407,15.56485 -13.16906,32.9862 0.61869,18.7451 5.83872,29.4982 16.20906,33.39018 6.42747,2.41222 17.751409,1.83548 24.637498,-1.25481 l 1.92284,-0.86274 v -13.2363 -13.2363 h -11.999998 -12 v -6.56 -6.56 h 20.319998 20.32 v 23.36698 23.36698 l -2,1.29772 c -6.09866,3.95718 -15.30987,6.96975 -24.307389,7.94984 -2.896379,0.31549 -9.534229,0.38249 -12.092609,0.12204 z"
     style="fill:#004360;fill-opacity:1;stroke-width:0.31999999" />
  <path
     id="path3770"
     d="m 87.986325,190.45188 v -46.88 h 27.840005 27.83999 v 6.56 6.56 h -19.51999 -19.52 v 12.48 12.48 h 18.56 18.55999 v 6.56 6.56 h -18.55999 -18.56 v 14.72 14.72 h 20.16 20.15999 v 6.56 6.56 H 116.46633 87.986325 Z"
     style="fill:#004360;fill-opacity:1;stroke-width:0.31999999" />
  <path
     id="path3768"
     d="m 188.67531,143.61496 c -3.63642,0.001 -4.04548,0.11887 -4.20117,0.51172 -0.93347,2.35542 -34.84709,92.21031 -34.96875,92.65039 -0.14698,0.5317 0.34328,0.56077 8.23828,0.48047 l 8.39648,-0.0859 4.29102,-11.51953 c 2.36028,-6.336 4.66057,-12.49168 5.11133,-13.67968 l 0.82031,-2.16016 h 17.19141 17.1914 l 4.91602,12.87891 c 2.70369,7.084 5.10952,13.27771 5.34765,13.76171 l 0.4336,0.87891 h 8.3125 c 4.57148,0 8.31054,-0.0399 8.31054,-0.0879 0,-0.048 -8.04839,-21.10684 -17.88476,-46.79883 l -17.88281,-46.71289 -8.80079,-0.0859 c -2.03951,-0.0197 -3.61012,-0.0316 -4.82226,-0.0312 z m 4.88086,18.52344 c 0.10471,0.003 2.84008,7.59829 6.07812,16.87891 3.23803,9.28062 5.95241,17.05539 6.03321,17.27539 0.1159,0.3156 -2.42648,0.39844 -12.04688,0.39844 -6.70684,0 -12.19626,-0.10629 -12.19726,-0.23829 -0.005,-0.50311 11.95187,-34.32045 12.13281,-34.31445 z"
     style="fill:#004360;fill-opacity:1;stroke-width:0.31999999" />
  <path
     id="path3764"
     d="m 241.58633,190.45747 v -46.88559 h 9.40343 9.40344 l 19.95655,34.58915 19.95658,34.58915 0.0814,-34.58915 0.0814,-34.58915 h 41.59864 41.59856 v 6.56 6.56 h -12.47875 -12.47879 l -0.0812,40.24 -0.0813,40.24 -8.24,0.0854 -8.24,0.0854 v -40.3254 -40.3254 h -12.79875 -12.79879 l -0.0812,40.24 -0.0813,40.24 h -9.44 -9.44 l -19.84,-34.26189 -19.84,-34.2619 -0.16,34.2619 -0.16,34.26189 -7.92,0.0856 -7.92,0.0856 z"
     style="fill:#004360;fill-opacity:1;stroke-width:0.31999999" />
  <path
     id="path3756"
     d="m 520.99787,71.350445 c 0,-0.25626 -0.12236,-0.39031 -0.2719,-0.29789 -0.14954,0.0924 -0.18902,0.30208 -0.0878,0.46592 0.25876,0.41868 0.35968,0.37154 0.35968,-0.16803 z"
     style="fill:#000000;stroke-width:0.31999999" />
  <path
     id="path3754"
     d="m 346.91786,6.3904422 c 0,-0.256259 -0.12234,-0.390307 -0.27188,-0.297888 -0.14954,0.09242 -0.18904,0.302083 -0.0878,0.465923 0.25876,0.418682 0.35966,0.371539 0.35966,-0.168035 z"
     style="fill:#000000;stroke-width:0.31999999" />
  <path
     id="path3694"
     d="m 97.391875,136.49592 -0.81776,-0.85356 7.946105,-6.77111 c 4.37036,-3.72411 8.77596,-7.27952 9.79021,-7.90091 3.73298,-2.287 7.24237,-2.9041 10.69108,-1.87994 2.78961,0.82842 5.64656,3.911 5.92445,6.39234 l 0.10037,0.89622 -16.40834,5.48526 -16.408345,5.48527 z"
     style="fill:#004360;fill-opacity:1;stroke-width:0.31999999" />
  <g
     transform="translate(713.36558,-47.575855)"
     id="g3849">
    <path
       style="fill:#004360;fill-opacity:1;stroke-width:0.31999999"
       d="m -429.63281,114.90821 c -42.39325,14.39326 -83.75272,31.5895 -125.07813,48.7461 -1.35239,0.33527 -2.80915,0.44977 -4.20117,0.2246 -1.65332,-0.0359 -3.35973,-0.65751 -4.90039,-1.78515 -1.01077,-0.74328 -1.92452,-1.68623 -2.68946,-2.77539 1.16823,2.06287 3.10567,4.20457 4.79883,5.11133 1.07492,0.57566 1.75386,1.00539 4.42472,1.00139 l 3.26473,-0.3218 11.03907,-4.36914 c 45.94147,-18.18207 95.38866,-34.90025 135.67969,-45.87108 5.65813,-1.90842 11.5082,-3.00368 17.34374,-4.29478 22.91688,-6.35878 46.41556,-10.73506 69.97072,-14.03516 14.07211,-1.68501 28.48317,-3.08371 42.83789,-3.16992 18.45606,-0.11085 36.81853,1.94685 54.24608,8.35351 21.35301,7.35647 36.98155,26.78001 41.63867,48.58984 5.81114,28.75308 -4.52733,57.64823 -15.7246,83.76563 -1.92472,3.5443 -3.42224,7.53668 -5.13282,11.38672 0.0261,0.28131 0.0411,0.56604 0.0449,0.85352 0.007,1.36423 -3.15761,7.26677 -3.63814,8.64282 0.41426,-0.67239 3.66899,-5.32025 4.22604,-6.64282 22.99539,-38.5544 35.701,-69.30634 38.8457,-94.01954 0.7905,-6.21199 0.52719,-20.46577 -0.46875,-25.33984 -2.61571,-12.80152 -9.07152,-24.23077 -18.27539,-32.35547 -11.83219,-10.44485 -28.26246,-16.62648 -51.03321,-19.19923 -6.10538,-0.68981 -25.34839,-0.95889 -33.64061,-0.4707 -33.51099,1.9729 -73.87828,10.09236 -122.0215,24.54298 -19.58844,5.06342 -22.43449,6.74569 -41.55661,13.43158 z"
       id="path3762-3" />
    <path
       style="fill:#ed1556;fill-opacity:1;stroke-width:0.31999999"
       d="m -525.57812,47.576172 c -0.78513,-0.003 -1.58745,0.01548 -2.51563,0.04687 -5.54732,0.18742 -9.19629,0.519543 -9.62695,0.876953 -0.1939,0.16092 -0.43527,0.209272 -0.53711,0.107422 -7.92021,0.946917 -22.02579,6.46932 -25.28321,12.18164 -0.1,0.175322 0.0799,0.175864 -0.125,0.05859 -0.46858,-0.26819 -3.36893,3.307628 -3.15234,3.886719 0.0857,0.229149 0.0192,0.332132 -0.14844,0.228516 -0.52381,-0.323744 -4.66188,6.975372 -4.29297,7.572265 0.0899,0.145437 0.0303,0.263672 -0.13281,0.263672 -0.52004,0 -2.82741,7.462369 -3.46289,11.199219 -0.10476,0.616 -0.22387,1.265406 -0.26367,1.441406 -0.31766,1.40494 -0.54748,2.77802 -0.66797,4 -0.0781,0.792 -0.29435,2.878672 -0.48047,4.638672 -0.38893,21.303304 1.35471,43.428194 8.35938,61.759764 0.21562,0.528 0.4274,1.10525 0.4707,1.28125 0.16749,0.68091 0.50784,1.44034 0.94531,2.21094 0.76314,1.08385 1.67281,2.02325 2.67969,2.76367 1.54066,1.12764 3.24707,1.74926 4.90039,1.78516 -0.61857,-0.10005 -1.22552,-0.2603 -1.80273,-0.50977 -3.82468,-0.92308 -5.60025,-6.03741 -6.64454,-10.30469 -3.9169,-19.86167 -5.10305,-41.05316 1.67774,-60.443355 1.74271,-6.2618 5.44995,-11.52403 9.70508,-16.53711 2.67444,-3.27976 6.44448,-5.83616 10.33398,-7.5625 3.85891,-2.5054 10.32927,-3.854329 13.625,-4.818359 4.13895,-0.38398 8.35629,-0.673996 12.57422,-0.660156 4.21793,0.0138 8.43516,0.331183 12.57422,1.158203 5.36845,0.90556 11.49633,2.201151 16.29297,3.675781 11.1912,3.4061 22.09562,8.032701 32.6875,13.119141 4.69572,2.51035 8.63507,3.503444 12.46289,6.365234 5.3837,2.8045 10.31233,5.441261 15.42969,8.306641 5.99256,4.39588 13.13411,7.98788 19.29687,12.49805 3.71475,-1.29146 7.38737,-2.47764 12.00977,-3.80664 -1.14225,-0.64719 -6.67339,-4.3479 -7.80469,-5.246098 -12.75016,-8.041064 -26.36563,-17.057832 -37.5918,-23.490234 -0.25981,-0.0574 -0.6562,-0.274532 -0.88086,-0.482422 -1.34267,-1.2425 -23.31515,-12.382809 -23.81445,-12.074219 -0.15063,0.0931 -0.27344,0.0374 -0.27344,-0.125 -20.12775,-6.940512 -35.83274,-15.150962 -56.52343,-15.365234 z m 243.05078,45.884766 c -3.59066,0.09957 -7.18224,0.272338 -10.76758,0.503906 3.58534,-0.231568 7.17692,-0.404331 10.76758,-0.503906 z m -116.16211,10.898432 c -5.995,-3.58267 -12.01083,3.67279 -12.00977,3.80664 0,0.18481 9.40548,6.0968 10.48049,6.76954 18.12265,11.07891 33.5557,25.019 51.70508,37.61523 0.14268,0.0127 0.40408,0.212 0.58008,0.44141 29.28698,22.24824 53.12399,43.4545 78.70898,65.51953 1.05001,0.9057 2.63354,2.25955 3.51953,3.00976 0.88601,0.75022 1.898,1.61927 2.25,1.92969 8.31864,6.64452 16.12156,13.9432 23.52149,20.16992 2.552,2.14183 4.85514,4.09105 5.11914,4.33203 0.264,0.24099 1.56086,1.3311 2.88086,2.42383 1.32,1.09273 2.68706,2.22959 3.03906,2.52539 3.10316,2.28216 6.03288,5.22691 9.2793,6.83008 1.6929,0.8271 2.20418,0.9275 4.32031,0.8418 1.87295,-0.0758 2.82194,-0.30258 4.32031,-1.03516 1.98629,-0.97114 3.45094,-2.1864 5.35352,-4.77539 0.61021,-1.57934 3.55758,-7.11976 3.55078,-8.44531 -0.004,-0.28748 -0.0188,-0.57221 -0.0449,-0.85352 -2.30663,5.19135 -5.0136,10.11772 -9.79102,13.26368 -2.82,1.50292 -6.27775,0.73936 -7.71484,0.002 -4.87347,-3.87183 -10.14494,-8.99415 -14.52149,-12.80274 -5.79012,-5.64243 -10.94484,-9.73606 -16.36328,-15.29687 -4.74298,-3.90838 -9.04105,-9.14117 -13.91406,-12.625 -6.17907,-7.06377 -14.24141,-13.53658 -21.2168,-20.31055 -6.33058,-5.26408 -12.22714,-11.30097 -18.61133,-16.83203 -5.42992,-5.12715 -10.07151,-7.84732 -14.36523,-12.57226 -4.54608,-3.62268 -8.72875,-7.34678 -13.22461,-11.31446 -5.22528,-4.58054 -10.52163,-8.51265 -15.72656,-13.20312 -5.19986,-3.67636 -8.50568,-6.79742 -13.43946,-10.86524 -5.69486,-4.69564 -12.34985,-9.53518 -17.75586,-13.71093 -3.17856,-2.9233 -15.8073,-12.08745 -19.92972,-14.83795 z m -48.67383,22.34766 c -5.59714,1.76808 -11.27488,3.60447 -17.00977,5.50195 5.73489,-1.89748 11.41263,-3.73387 17.00977,-5.50195 z m -34.35938,11.36719 c -5.82317,2.01016 -11.67901,4.07358 -17.54101,6.17969 5.862,-2.10611 11.71784,-4.16953 17.54101,-6.17969 z m -84.58398,21.5625 c 0.19437,0.32265 0.40121,0.64078 0.62695,0.95898 -0.22462,-0.31733 -0.43324,-0.63724 -0.62695,-0.95898 z M -565.38672,161 c 0.1203,0.15919 0.24117,0.31376 0.36719,0.46875 -0.12506,-0.15428 -0.24776,-0.31033 -0.36719,-0.46875 z m 0.75977,0.93164 c 0.10554,0.12057 0.20647,0.24513 0.31445,0.36133 -0.10752,-0.11605 -0.20936,-0.24093 -0.31445,-0.36133 z m 1.05468,1.10156 c 0.0819,0.0763 0.16378,0.14399 0.2461,0.2168 -0.0818,-0.0725 -0.16475,-0.14081 -0.2461,-0.2168 z m 8.86133,0.6211 c -0.41953,0.104 -0.85232,0.17528 -1.28711,0.23437 0.43517,-0.058 0.86702,-0.13023 1.28711,-0.23437 z m -8.02148,0.0879 c 0.0764,0.0586 0.15238,0.11705 0.22851,0.17187 -0.0759,-0.0548 -0.15233,-0.11332 -0.22851,-0.17187 z m 365.75,70.33593 c -0.42596,0.78439 -0.82492,1.59538 -1.21485,2.41797 0.39091,-0.82154 0.78906,-1.63389 1.21485,-2.41797 z m -1.50977,3.03516 c -0.10102,0.21885 -0.19747,0.44337 -0.29687,0.66406 0.0998,-0.22038 0.19553,-0.4455 0.29687,-0.66406 z m -5.85547,15.81445 c -0.0487,0.0723 -0.0722,0.10826 -0.11914,0.17774 0.0396,-0.0594 0.0791,-0.11722 0.11914,-0.17774 z"
       id="path3820" />
  </g>
</svg>
