<?xml version="1.0" encoding="UTF-8" standalone="no"?>
<svg xmlns:dc="http://purl.org/dc/elements/1.1/" xmlns:cc="http://creativecommons.org/ns#" xmlns:rdf="http://www.w3.org/1999/02/22-rdf-syntax-ns#" xmlns:svg="http://www.w3.org/2000/svg" xmlns="http://www.w3.org/2000/svg" xmlns:sodipodi="http://sodipodi.sourceforge.net/DTD/sodipodi-0.dtd" xmlns:inkscape="http://www.inkscape.org/namespaces/inkscape" version="1.1" id="svg7062" viewBox="0 0 27.521392 17.647692" height="4.9805708mm" width="7.7671485mm" inkscape:version="0.92.0 r15299" sodipodi:docname="cc.svg">
  <sodipodi:namedview pagecolor="#ffffff" bordercolor="#666666" borderopacity="1" objecttolerance="10" gridtolerance="10" guidetolerance="10" inkscape:pageopacity="0" inkscape:pageshadow="2" inkscape:window-width="1366" inkscape:window-height="738" id="namedview4338" showgrid="false" inkscape:zoom="1.0651048" inkscape:cx="304.47479" inkscape:cy="-203.4404" inkscape:window-x="0" inkscape:window-y="0" inkscape:window-maximized="1" inkscape:current-layer="g6990" fit-margin-top="0.8" fit-margin-left="0.8" fit-margin-right="0.8" fit-margin-bottom="0.8"/>
  <defs id="defs7064"/>
  <metadata id="metadata7067">
    <rdf:RDF>
      <cc:Work rdf:about="">
        <dc:format>image/svg+xml</dc:format>
        <dc:type rdf:resource="http://purl.org/dc/dcmitype/StillImage"/>
        <dc:title/>
      </cc:Work>
    </rdf:RDF>
  </metadata>
  <g transform="translate(205.66305,-142.41325)" id="layer1">
    <g transform="translate(-3109.1006,-6021.9621)" id="g6990">
      <path style="font-style:normal;font-variant:normal;font-weight:normal;font-stretch:normal;font-size:357.5239563px;line-height:125%;font-family:Sigmar;-inkscape-font-specification:Sigmar;letter-spacing:0px;word-spacing:0px;fill:#87cdde;fill-opacity:1;stroke:none;stroke-width:0.06696655px;stroke-linecap:butt;stroke-linejoin:miter;stroke-opacity:1" d="m 2914.9698,6167.21 c -1.1924,0 -2.3224,0.2182 -3.3901,0.6546 -1.0678,0.4365 -1.9914,1.0367 -2.7708,1.8004 -0.7793,0.7638 -1.3989,1.6873 -1.8587,2.7706 -0.452,1.0834 -0.678,2.2447 -0.678,3.4839 0,1.1538 0.1961,2.2434 0.588,3.2689 h 0.9856 c -0.425,-0.9956 -0.6385,-2.085 -0.6385,-3.2689 0,-1.1457 0.1989,-2.2095 0.5963,-3.1915 0.4053,-0.982 0.9547,-1.8082 1.6483,-2.4785 0.7014,-0.678 1.5276,-1.2042 2.4784,-1.5782 0.9509,-0.3819 1.964,-0.5728 3.0395,-0.5728 1.4341,0 2.7396,0.3312 3.9164,0.9936 1.1769,0.6547 2.0965,1.5587 2.759,2.7122 l 0.9352,-0.2455 c -0.7638,-1.3405 -1.8198,-2.4004 -3.1681,-3.1797 -1.3405,-0.7794 -2.8214,-1.1691 -4.4425,-1.1691 z" id="leftC" inkscape:connector-curvature="0"/>
      <path style="font-style:normal;font-variant:normal;font-weight:normal;font-stretch:normal;font-size:357.5239563px;line-height:125%;font-family:Sigmar;-inkscape-font-specification:Sigmar;letter-spacing:0px;word-spacing:0px;fill:#00aad4;fill-opacity:1;stroke:none;stroke-width:0.06696655px;stroke-linecap:butt;stroke-linejoin:miter;stroke-opacity:1" d="m 2920.5138,6167.5013 c -1.1924,0 -2.3224,0.2182 -3.3902,0.6546 -1.0677,0.4365 -1.9913,1.0366 -2.7707,1.8004 -0.7794,0.7638 -1.3989,1.6873 -1.8587,2.7706 -0.4521,1.0833 -0.6781,2.2447 -0.6781,3.4838 0,1.0454 0.1615,2.0378 0.4832,2.9777 h 0.9731 c -0.3467,-0.9159 -0.5211,-1.9081 -0.5211,-2.9777 0,-1.1456 0.1988,-2.2095 0.5963,-3.1915 0.4053,-0.982 0.9546,-1.8081 1.6483,-2.4784 0.7014,-0.678 1.5276,-1.204 2.4784,-1.5781 0.9508,-0.3819 1.964,-0.5729 3.0395,-0.5729 1.434,0 2.7395,0.3312 3.9164,0.9936 1.1768,0.6547 2.0965,1.5588 2.7589,2.7123 l 0.9352,-0.2455 c -0.7638,-1.3405 -1.8198,-2.4005 -3.1681,-3.1799 -1.3405,-0.7793 -2.8213,-1.169 -4.4424,-1.169 z" id="rightC" inkscape:connector-curvature="0"/>
    </g>
  </g>
</svg>