<?xml version="1.0" encoding="UTF-8" standalone="no"?>
<svg
   xmlns:dc="http://purl.org/dc/elements/1.1/"
   xmlns:cc="http://creativecommons.org/ns#"
   xmlns:rdf="http://www.w3.org/1999/02/22-rdf-syntax-ns#"
   xmlns:svg="http://www.w3.org/2000/svg"
   xmlns="http://www.w3.org/2000/svg"
   xmlns:sodipodi="http://sodipodi.sourceforge.net/DTD/sodipodi-0.dtd"
   xmlns:inkscape="http://www.inkscape.org/namespaces/inkscape"
   version="1.1"
   id="svg7062"
   viewBox="0 0 1179.2267 589.57048"
   height="166.38989mm"
   width="332.80399mm"
   inkscape:version="0.91 r13725"
   sodipodi:docname="logowhiteletters.svg">
  <sodipodi:namedview
     pagecolor="#ffffff"
     bordercolor="#666666"
     borderopacity="1"
     objecttolerance="10"
     gridtolerance="10"
     guidetolerance="10"
     inkscape:pageopacity="0"
     inkscape:pageshadow="2"
     inkscape:window-width="865"
     inkscape:window-height="480"
     id="namedview4338"
     showgrid="false"
     inkscape:zoom="0.26627619"
     inkscape:cx="468.6445"
     inkscape:cy="294.78524"
     inkscape:window-x="0"
     inkscape:window-y="27"
     inkscape:window-maximized="0"
     inkscape:current-layer="g6990" />
  <defs
     id="defs7064" />
  <metadata
     id="metadata7067">
    <rdf:RDF>
      <cc:Work
         rdf:about="">
        <dc:format>image/svg+xml</dc:format>
        <dc:type
           rdf:resource="http://purl.org/dc/dcmitype/StillImage" />
        <dc:title></dc:title>
      </cc:Work>
    </rdf:RDF>
  </metadata>
  <g
     transform="translate(595.32758,-37.577)"
     id="layer1">
    <g
       transform="translate(-3109.1006,-6021.9621)"
       id="g6990">
      <path
         style="font-style:normal;font-variant:normal;font-weight:300;font-stretch:normal;font-size:medium;line-height:125%;font-family:Orbitron;-inkscape-font-specification:'Orbitron Light';letter-spacing:0px;word-spacing:0px;fill:#00aad4;fill-opacity:1;stroke:none;stroke-width:1px;stroke-linecap:butt;stroke-linejoin:miter;stroke-opacity:1"
         d="m 2788.139,6059.5391 0,280.5528 52.2676,0 0,-227.6485 226.2324,0 0,-52.9043 -278.5,0 z"
         id="leftBar" />
      <path
         style="font-style:normal;font-variant:normal;font-weight:300;font-stretch:normal;font-size:medium;line-height:125%;font-family:Orbitron;-inkscape-font-specification:'Orbitron Light';letter-spacing:0px;word-spacing:0px;fill:#000000;fill-opacity:1;stroke:none;stroke-width:1px;stroke-linecap:butt;stroke-linejoin:miter;stroke-opacity:1"
         d="m 3091.4677,6059.5391 0,52.9043 155.9213,0 0,227.6485 52.9043,0 0,-280.5528 z"
         id="rightBar" />
      <path
         style="font-style:normal;font-variant:normal;font-weight:normal;font-stretch:normal;font-size:357.5239563px;line-height:125%;font-family:Sigmar;-inkscape-font-specification:Sigmar;letter-spacing:0px;word-spacing:0px;fill:#87cdde;fill-opacity:1;stroke:none;stroke-width:1px;stroke-linecap:butt;stroke-linejoin:miter;stroke-opacity:1"
         d="m 3025.2269,6161.2208 c -17.8064,0 -34.6807,3.258 -50.625,9.7754 -15.9443,6.5173 -29.7368,15.4794 -41.375,26.8847 -11.6381,11.4054 -20.8893,25.1961 -27.7558,41.3731 -6.7502,16.177 -10.125,33.5188 -10.125,52.0234 0,17.2305 2.9287,33.5012 8.7812,48.8145 l 14.7168,0 c -6.3452,-14.8679 -9.5332,-31.1345 -9.5332,-48.8145 0,-17.1081 2.9688,-32.9941 8.9043,-47.6582 6.0518,-14.664 14.2553,-27.0009 24.6133,-37.0097 10.4743,-10.1252 22.8112,-17.9821 37.0097,-23.5684 14.1986,-5.7027 29.3281,-8.5527 45.3887,-8.5527 21.4142,0 40.9088,4.9454 58.4824,14.8378 17.5736,9.7761 31.3068,23.2756 41.1993,40.5 l 13.9648,-3.666 c -11.4054,-20.0176 -27.1746,-35.8442 -47.3086,-47.4824 -20.0176,-11.6381 -42.1305,-17.457 -66.3379,-17.457 z"
         id="leftC" />
      <path
         style="font-style:normal;font-variant:normal;font-weight:normal;font-stretch:normal;font-size:357.5239563px;line-height:125%;font-family:Sigmar;-inkscape-font-specification:Sigmar;letter-spacing:0px;word-spacing:0px;fill:#00aad4;fill-opacity:1;stroke:none;stroke-width:1px;stroke-linecap:butt;stroke-linejoin:miter;stroke-opacity:1"
         d="m 3108.014,6165.5704 c -17.8063,0 -34.6807,3.258 -50.625,9.7754 -15.9442,6.5173 -29.7368,15.4794 -41.375,26.8847 -11.6381,11.4054 -20.8893,25.1961 -27.7558,41.3731 -6.7502,16.177 -10.125,33.5188 -10.125,52.0234 0,15.6094 2.4117,30.4289 7.2148,44.4649 l 14.5313,0 c -5.1778,-13.6763 -7.7813,-28.4939 -7.7813,-44.4649 0,-17.108 2.9688,-32.9941 8.9043,-47.6582 6.0518,-14.664 14.2553,-27.0009 24.6133,-37.0097 10.4743,-10.1252 22.8112,-17.9801 37.0097,-23.5664 14.1986,-5.7027 29.3281,-8.5547 45.3887,-8.5547 21.4142,0 40.9088,4.9454 58.4824,14.8379 17.5736,9.776 31.3068,23.2775 41.1993,40.5019 l 13.9648,-3.666 c -11.4054,-20.0176 -27.1746,-35.8462 -47.3086,-47.4844 -20.0176,-11.6381 -42.1305,-17.457 -66.3379,-17.457 z"
         id="rightC" />
      <g
         style="font-style:normal;font-variant:normal;font-weight:normal;font-stretch:normal;font-size:157.10748291px;line-height:94.99999881%;font-family:OpenSymbol;-inkscape-font-specification:OpenSymbol;letter-spacing:0px;word-spacing:0px;fill:#ffffff;fill-opacity:1;stroke:none;stroke-width:1px;stroke-linecap:butt;stroke-linejoin:miter;stroke-opacity:1"
         id="logoText">
        <title
           id="title4385">The Commons Conservancy</title>
        <path
           d="m 2513.773,6393.457 0,-5.8301 83.1565,0 0,5.8301 -38.5097,0 0,104.1758 -6.137,0 0,-104.1758 -38.5098,0 z"
           style="font-style:normal;font-variant:normal;font-weight:300;font-stretch:expanded;line-height:94.99999881%;font-family:'Novecento wide';-inkscape-font-specification:'Novecento wide Light Expanded';text-align:center;text-anchor:middle;fill:#ffffff;fill-opacity:1"
           id="path4343" />
        <path
           d="m 2617.3351,6497.6328 0,-110.0059 5.9836,0 0,49.1728 69.5783,0 0,-49.1728 6.137,0 0,110.0059 -6.137,0 0,-55.0029 -69.5783,0 0,55.0029 -5.9836,0 z"
           style="font-style:normal;font-variant:normal;font-weight:300;font-stretch:expanded;line-height:94.99999881%;font-family:'Novecento wide';-inkscape-font-specification:'Novecento wide Light Expanded';text-align:center;text-anchor:middle;fill:#ffffff;fill-opacity:1"
           id="path4345" />
        <path
           d="m 2730.8698,6497.6328 0,-110.0059 70.0386,0 0,5.8301 -64.055,0 0,41.9619 52.0111,0 0,5.6767 -52.0111,0 0,50.7071 65.0523,0 0,5.8301 -71.0359,0 z"
           style="font-style:normal;font-variant:normal;font-weight:300;font-stretch:expanded;line-height:94.99999881%;font-family:'Novecento wide';-inkscape-font-specification:'Novecento wide Light Expanded';text-align:center;text-anchor:middle;fill:#ffffff;fill-opacity:1"
           id="path4347" />
        <path
           d="m 2862.2785,6465.5669 q -4.4493,-10.7397 -4.4493,-22.937 0,-12.1974 4.4493,-22.8604 4.5261,-10.6631 12.1973,-18.1809 7.6713,-7.5178 18.1809,-11.8138 10.5097,-4.2959 22.2467,-4.2959 15.9562,0 29.1508,7.6713 13.2713,7.6713 20.7891,20.8658 l -6.137,1.611 q -6.5206,-11.3535 -18.1042,-17.7973 -11.5836,-6.5206 -25.6987,-6.5206 -10.5864,0 -19.9453,3.7589 -9.3589,3.6822 -16.2631,10.3562 -6.8274,6.5973 -10.8165,16.2631 -3.9123,9.6658 -3.9123,20.9426 0,14.8055 6.7507,26.6192 6.8274,11.8138 18.411,18.2576 11.6604,6.3672 25.7755,6.3672 14.8055,0 26.9261,-7.3644 12.1973,-7.4411 18.6412,-20.1754 l 5.9069,1.7643 q -6.9809,14.7289 -20.7124,23.244 -13.6549,8.5151 -30.7618,8.5151 -11.737,0 -22.2467,-4.2959 -10.5096,-4.3726 -18.1809,-11.8138 -7.6712,-7.5178 -12.1973,-18.1809 z"
           style="font-style:normal;font-variant:normal;font-weight:300;font-stretch:expanded;line-height:94.99999881%;font-family:'Novecento wide';-inkscape-font-specification:'Novecento wide Light Expanded';text-align:center;text-anchor:middle;fill:#ffffff;fill-opacity:1"
           id="path4349" />
        <path
           d="m 2983.7913,6465.5669 q -4.4493,-10.7397 -4.4493,-22.937 0,-12.1974 4.4493,-22.8604 4.5261,-10.6631 12.1973,-18.1809 7.6713,-7.5178 18.1809,-11.8138 10.5097,-4.2959 22.2467,-4.2959 11.737,0 22.2467,4.2959 10.5096,4.296 18.1809,11.8138 7.6712,7.5178 12.1973,18.1809 4.526,10.663 4.526,22.8604 0,16.263 -7.6712,29.4576 -7.6713,13.1179 -20.7892,20.4823 -13.0411,7.2877 -28.6905,7.2877 -11.737,0 -22.2467,-4.2959 -10.5096,-4.3726 -18.1809,-11.8138 -7.6712,-7.5178 -12.1973,-18.1809 z m 1.6877,-22.937 q 0,14.8055 6.7507,26.6959 6.8275,11.8138 18.4111,18.2577 11.6603,6.4438 25.7754,6.4438 8.4384,0 16.1864,-2.3781 7.748,-2.4548 14.0384,-6.9808 6.2904,-4.6028 10.9699,-10.8165 4.6795,-6.2137 7.211,-14.2686 2.6082,-8.0548 2.6082,-16.9534 0,-15.0357 -6.9041,-26.8495 -6.8275,-11.8137 -18.4111,-18.1042 -11.5836,-6.3671 -25.6987,-6.3671 -10.5863,0 -19.9453,3.7589 -9.3589,3.6822 -16.2631,10.3562 -6.8274,6.5973 -10.8164,16.2631 -3.9124,9.6658 -3.9124,20.9426 z"
           style="font-style:normal;font-variant:normal;font-weight:300;font-stretch:expanded;line-height:94.99999881%;font-family:'Novecento wide';-inkscape-font-specification:'Novecento wide Light Expanded';text-align:center;text-anchor:middle;fill:#ffffff;fill-opacity:1"
           id="path4351" />
        <path
           d="m 3115.3535,6497.6328 0,-110.0059 5.6768,0 30.6083,53.1618 q 4.4493,7.6713 7.5178,13.4248 3.0685,5.6767 3.9124,7.4411 l 0.8438,1.7644 0.1534,0 0.9206,-1.7644 q 0.8438,-1.7644 3.9123,-7.4411 3.1453,-5.7535 7.5946,-13.4248 l 30.6083,-53.1618 5.6768,0 0,110.0059 -5.9836,0 0,-60.8331 q 0,-5.2165 0.1534,-15.0357 0.1534,-9.8959 0.2302,-16.7233 0.1534,-6.8275 0.077,-6.8275 l -0.1535,0 q -0.077,0 -1.2274,1.9946 -1.0739,1.9945 -3.5287,6.4438 -2.4548,4.4494 -4.5261,8.2083 l -32.2193,55.7701 -3.1452,0 -32.2193,-55.7701 q -2.148,-3.8357 -4.5261,-8.2083 -2.3781,-4.3726 -3.5288,-6.3671 -1.0739,-2.0713 -1.1506,-2.0713 l -0.1535,0 q -0.077,0 0,6.8275 0.1535,6.8274 0.3069,16.7233 0.1534,9.8192 0.1534,15.0357 l 0,60.8331 -5.9836,0 z"
           style="font-style:normal;font-variant:normal;font-weight:300;font-stretch:expanded;line-height:94.99999881%;font-family:'Novecento wide';-inkscape-font-specification:'Novecento wide Light Expanded';text-align:center;text-anchor:middle;fill:#ffffff;fill-opacity:1"
           id="path4353" />
        <path
           d="m 3244.5376,6497.6328 0,-110.0059 5.6767,0 30.6084,53.1618 q 4.4493,7.6713 7.5178,13.4248 3.0685,5.6767 3.9124,7.4411 l 0.8438,1.7644 0.1534,0 0.9206,-1.7644 q 0.8438,-1.7644 3.9123,-7.4411 3.1452,-5.7535 7.5946,-13.4248 l 30.6083,-53.1618 5.6768,0 0,110.0059 -5.9836,0 0,-60.8331 q 0,-5.2165 0.1534,-15.0357 0.1534,-9.8959 0.2301,-16.7233 0.1535,-6.8275 0.077,-6.8275 l -0.1534,0 q -0.077,0 -1.2274,1.9946 -1.074,1.9945 -3.5288,6.4438 -2.4548,4.4494 -4.526,8.2083 l -32.2193,55.7701 -3.1452,0 -32.2193,-55.7701 q -2.148,-3.8357 -4.5261,-8.2083 -2.3781,-4.3726 -3.5288,-6.3671 -1.0739,-2.0713 -1.1507,-2.0713 l -0.1534,0 q -0.077,0 0,6.8275 0.1534,6.8274 0.3069,16.7233 0.1534,9.8192 0.1534,15.0357 l 0,60.8331 -5.9836,0 z"
           style="font-style:normal;font-variant:normal;font-weight:300;font-stretch:expanded;line-height:94.99999881%;font-family:'Novecento wide';-inkscape-font-specification:'Novecento wide Light Expanded';text-align:center;text-anchor:middle;fill:#ffffff;fill-opacity:1"
           id="path4355" />
        <path
           d="m 3368.8888,6465.5669 q -4.4493,-10.7397 -4.4493,-22.937 0,-12.1974 4.4493,-22.8604 4.5261,-10.6631 12.1973,-18.1809 7.6713,-7.5178 18.1809,-11.8138 10.5096,-4.2959 22.2467,-4.2959 11.737,0 22.2466,4.2959 10.5097,4.296 18.1809,11.8138 7.6713,7.5178 12.1974,18.1809 4.526,10.663 4.526,22.8604 0,16.263 -7.6713,29.4576 -7.6712,13.1179 -20.7891,20.4823 -13.0411,7.2877 -28.6905,7.2877 -11.7371,0 -22.2467,-4.2959 -10.5096,-4.3726 -18.1809,-11.8138 -7.6712,-7.5178 -12.1973,-18.1809 z m 1.6877,-22.937 q 0,14.8055 6.7507,26.6959 6.8274,11.8138 18.411,18.2577 11.6604,6.4438 25.7755,6.4438 8.4384,0 16.1863,-2.3781 7.748,-2.4548 14.0385,-6.9808 6.2904,-4.6028 10.9699,-10.8165 4.6794,-6.2137 7.211,-14.2686 2.6082,-8.0548 2.6082,-16.9534 0,-15.0357 -6.9042,-26.8495 -6.8274,-11.8137 -18.411,-18.1042 -11.5836,-6.3671 -25.6987,-6.3671 -10.5864,0 -19.9453,3.7589 -9.3589,3.6822 -16.2631,10.3562 -6.8274,6.5973 -10.8165,16.2631 -3.9123,9.6658 -3.9123,20.9426 z"
           style="font-style:normal;font-variant:normal;font-weight:300;font-stretch:expanded;line-height:94.99999881%;font-family:'Novecento wide';-inkscape-font-specification:'Novecento wide Light Expanded';text-align:center;text-anchor:middle;fill:#ffffff;fill-opacity:1"
           id="path4357" />
        <path
           d="m 3500.4509,6497.6328 0,-110.0059 5.6768,0 61.5235,82.8496 q 3.6822,4.9096 7.0576,9.5891 3.452,4.6028 4.6027,6.137 1.1507,1.5343 1.2274,1.5343 l 0.1535,0 q 0.077,0 -0.077,-3.3754 -0.077,-3.452 -0.2301,-10.126 -0.1534,-6.674 -0.1534,-12.5809 l 0,-74.0277 5.9836,0 0,110.0059 -5.6768,0 -61.9071,-83.3866 q -4.0657,-5.5233 -7.211,-9.9727 -3.1452,-4.4493 -4.1424,-5.9068 -0.9206,-1.4576 -0.9973,-1.4576 l -0.1534,0 q -0.077,0 0,3.3754 0.077,3.2986 0.1534,10.126 0.1534,6.7508 0.1534,12.7343 l 0,74.488 -5.9836,0 z"
           style="font-style:normal;font-variant:normal;font-weight:300;font-stretch:expanded;line-height:94.99999881%;font-family:'Novecento wide';-inkscape-font-specification:'Novecento wide Light Expanded';text-align:center;text-anchor:middle;fill:#ffffff;fill-opacity:1"
           id="path4359" />
        <path
           d="m 3608.8459,6467.7916 5.8302,-1.611 q 0.6904,11.8905 9.6658,19.9453 9.0521,8.0548 24.0878,8.0548 14.7288,0 23.7042,-7.0575 8.9753,-7.1343 8.9753,-18.2576 0,-2.9151 -0.6904,-5.4466 -0.6904,-2.6083 -1.6877,-4.6028 -0.9972,-1.9945 -2.915,-3.8356 -1.8411,-1.9178 -3.4521,-3.2219 -1.5343,-1.3042 -4.2959,-2.6083 -2.685,-1.3808 -4.6028,-2.1479 -1.8411,-0.7672 -5.063,-1.7644 -3.1452,-1.074 -4.9096,-1.5343 -1.7644,-0.4602 -5.1398,-1.3041 -3.3753,-0.9205 -4.7561,-1.3041 -12.1206,-3.3754 -17.3371,-5.8302 -15.3425,-7.3644 -15.3425,-21.4028 0,-12.6576 10.4329,-20.4823 10.4329,-7.9014 26.4659,-7.9014 14.7288,0 25.0083,7.9014 10.2795,7.8247 12.5041,21.1727 l -5.7534,1.5343 q -1.7644,-11.5069 -10.5096,-18.2576 -8.6686,-6.7507 -21.2494,-6.7507 -13.5782,0 -22.17,6.137 -8.5918,6.0603 -8.5918,16.6466 0,2.3014 0.6904,4.4493 0.6904,2.0713 1.611,3.6823 0.9205,1.6109 2.8383,3.2219 1.9179,1.6109 3.3754,2.6849 1.4575,1.074 4.2959,2.3014 2.9151,1.2274 4.526,1.9178 1.6877,0.6137 5.1398,1.6877 3.4521,0.9973 4.9863,1.4575 1.5343,0.3836 5.2165,1.3809 13.7315,3.6055 20.0987,6.7507 17.4138,8.5918 17.4138,25.4686 0,13.4247 -10.7398,22.2466 -10.7398,8.7453 -28.0768,8.7453 -17.2604,0 -27.8467,-9.1288 -10.5097,-9.1288 -11.7371,-22.9371 z"
           style="font-style:normal;font-variant:normal;font-weight:300;font-stretch:expanded;line-height:94.99999881%;font-family:'Novecento wide';-inkscape-font-specification:'Novecento wide Light Expanded';text-align:center;text-anchor:middle;fill:#ffffff;fill-opacity:1"
           id="path4361" />
        <path
           d="m 2519.6799,6614.8189 q -4.4493,-10.7398 -4.4493,-22.9371 0,-12.1973 4.4493,-22.8604 4.526,-10.663 12.1973,-18.1809 7.6713,-7.5178 18.1809,-11.8137 10.5096,-4.2959 22.2467,-4.2959 15.9562,0 29.1508,7.6713 13.2713,7.6712 20.7891,20.8658 l -6.137,1.611 q -6.5206,-11.3535 -18.1042,-17.7974 -11.5836,-6.5206 -25.6987,-6.5206 -10.5864,0 -19.9453,3.759 -9.359,3.6822 -16.2631,10.3562 -6.8274,6.5973 -10.8165,16.2631 -3.9123,9.6657 -3.9123,20.9425 0,14.8055 6.7507,26.6193 6.8274,11.8137 18.411,18.2576 11.6603,6.3671 25.7755,6.3671 14.8055,0 26.9261,-7.3644 12.1973,-7.4411 18.6412,-20.1754 l 5.9068,1.7644 q -6.9808,14.7288 -20.7124,23.2439 -13.6548,8.5151 -30.7617,8.5151 -11.7371,0 -22.2467,-4.2959 -10.5096,-4.3726 -18.1809,-11.8137 -7.6713,-7.5179 -12.1973,-18.1809 z"
           style="font-style:normal;font-variant:normal;font-weight:300;font-stretch:expanded;line-height:94.99999881%;font-family:'Novecento wide';-inkscape-font-specification:'Novecento wide Light Expanded';text-align:center;text-anchor:middle;fill:#ffffff;fill-opacity:1"
           id="path4363" />
        <path
           d="m 2641.1927,6614.8189 q -4.4493,-10.7398 -4.4493,-22.9371 0,-12.1973 4.4493,-22.8604 4.5261,-10.663 12.1973,-18.1809 7.6713,-7.5178 18.1809,-11.8137 10.5096,-4.2959 22.2467,-4.2959 11.737,0 22.2466,4.2959 10.5097,4.2959 18.1809,11.8137 7.6713,7.5179 12.1973,18.1809 4.5261,10.6631 4.5261,22.8604 0,16.2631 -7.6713,29.4577 -7.6712,13.1178 -20.7891,20.4822 -13.0411,7.2877 -28.6905,7.2877 -11.7371,0 -22.2467,-4.2959 -10.5096,-4.3726 -18.1809,-11.8137 -7.6712,-7.5179 -12.1973,-18.1809 z m 1.6877,-22.9371 q 0,14.8055 6.7507,26.696 6.8274,11.8137 18.411,18.2576 11.6604,6.4439 25.7755,6.4439 8.4384,0 16.1863,-2.3781 7.748,-2.4548 14.0385,-6.9809 6.2904,-4.6027 10.9699,-10.8165 4.6794,-6.2137 7.211,-14.2685 2.6082,-8.0548 2.6082,-16.9535 0,-15.0357 -6.9042,-26.8494 -6.8274,-11.8138 -18.411,-18.1042 -11.5836,-6.3672 -25.6987,-6.3672 -10.5864,0 -19.9453,3.759 -9.3589,3.6822 -16.2631,10.3562 -6.8274,6.5973 -10.8165,16.2631 -3.9123,9.6657 -3.9123,20.9425 z"
           style="font-style:normal;font-variant:normal;font-weight:300;font-stretch:expanded;line-height:94.99999881%;font-family:'Novecento wide';-inkscape-font-specification:'Novecento wide Light Expanded';text-align:center;text-anchor:middle;fill:#ffffff;fill-opacity:1"
           id="path4365" />
        <path
           d="m 2772.7549,6646.8848 0,-110.006 5.6767,0 61.5236,82.8497 q 3.6822,4.9096 7.0575,9.5891 3.4521,4.6027 4.6028,6.137 1.1507,1.5342 1.2274,1.5342 l 0.1534,0 q 0.077,0 -0.077,-3.3753 -0.077,-3.4521 -0.2302,-10.1261 -0.1534,-6.674 -0.1534,-12.5809 l 0,-74.0277 5.9836,0 0,110.006 -5.6767,0 -61.9071,-83.3867 q -4.0658,-5.5233 -7.211,-9.9726 -3.1452,-4.4493 -4.1425,-5.9069 -0.9205,-1.4575 -0.9973,-1.4575 l -0.1534,0 q -0.077,0 0,3.3753 0.077,3.2987 0.1534,10.1261 0.1535,6.7507 0.1535,12.7343 l 0,74.488 -5.9836,0 z"
           style="font-style:normal;font-variant:normal;font-weight:300;font-stretch:expanded;line-height:94.99999881%;font-family:'Novecento wide';-inkscape-font-specification:'Novecento wide Light Expanded';text-align:center;text-anchor:middle;fill:#ffffff;fill-opacity:1"
           id="path4367" />
        <path
           d="m 2881.1498,6617.0435 5.8302,-1.6109 q 0.6904,11.8904 9.6658,19.9453 9.0521,8.0548 24.0878,8.0548 14.7288,0 23.7042,-7.0576 8.9753,-7.1342 8.9753,-18.2576 0,-2.9151 -0.6904,-5.4466 -0.6904,-2.6082 -1.6877,-4.6027 -0.9972,-1.9946 -2.915,-3.8357 -1.8411,-1.9178 -3.4521,-3.2219 -1.5343,-1.3041 -4.2959,-2.6082 -2.685,-1.3808 -4.6028,-2.148 -1.8411,-0.7671 -5.063,-1.7644 -3.1452,-1.0739 -4.9096,-1.5342 -1.7644,-0.4603 -5.1398,-1.3041 -3.3753,-0.9206 -4.7561,-1.3041 -12.1206,-3.3754 -17.3371,-5.8302 -15.3425,-7.3644 -15.3425,-21.4028 0,-12.6576 10.4329,-20.4823 10.4329,-7.9014 26.4659,-7.9014 14.7288,0 25.0083,7.9014 10.2795,7.8247 12.5041,21.1727 l -5.7534,1.5342 q -1.7644,-11.5069 -10.5096,-18.2576 -8.6686,-6.7507 -21.2494,-6.7507 -13.5782,0 -22.17,6.137 -8.5918,6.0603 -8.5918,16.6467 0,2.3013 0.6904,4.4493 0.6904,2.0712 1.611,3.6822 0.9205,1.611 2.8383,3.2219 1.9178,1.611 3.3754,2.685 1.4575,1.074 4.2959,2.3014 2.9151,1.2274 4.526,1.9178 1.6877,0.6137 5.1398,1.6877 3.4521,0.9972 4.9863,1.4575 1.5343,0.3836 5.2165,1.3808 13.7315,3.6055 20.0987,6.7507 17.4138,8.5918 17.4138,25.4686 0,13.4247 -10.7398,22.2467 -10.7398,8.7452 -28.0768,8.7452 -17.2604,0 -27.8467,-9.1288 -10.5097,-9.1288 -11.7371,-22.9371 z"
           style="font-style:normal;font-variant:normal;font-weight:300;font-stretch:expanded;line-height:94.99999881%;font-family:'Novecento wide';-inkscape-font-specification:'Novecento wide Light Expanded';text-align:center;text-anchor:middle;fill:#ffffff;fill-opacity:1"
           id="path4369" />
        <path
           d="m 2982.3338,6646.8848 0,-110.006 70.0387,0 0,5.8302 -64.0551,0 0,41.9618 52.0112,0 0,5.6768 -52.0112,0 0,50.707 65.0523,0 0,5.8302 -71.0359,0 z"
           style="font-style:normal;font-variant:normal;font-weight:300;font-stretch:expanded;line-height:94.99999881%;font-family:'Novecento wide';-inkscape-font-specification:'Novecento wide Light Expanded';text-align:center;text-anchor:middle;fill:#ffffff;fill-opacity:1"
           id="path4371" />
        <path
           d="m 3078.378,6646.8848 0,-110.006 29.5344,0 q 18.6411,0 29.1508,8.8987 10.5863,8.8987 10.5863,24.4713 0,12.0439 -6.5206,20.0988 -6.4438,8.0548 -18.3343,11.1233 l 28.307,45.4139 -7.0576,0 -27.1563,-44.3399 q -4.2191,0.6904 -8.9753,0.6904 l -23.5508,0 0,43.6495 -5.9836,0 z m 5.9836,-49.0194 23.5508,0 q 16.1096,0 24.8549,-7.4411 8.7452,-7.4412 8.7452,-20.1755 0,-13.348 -8.9754,-20.4055 -8.8986,-7.1343 -24.6247,-7.1343 l -23.5508,0 0,55.1564 z"
           style="font-style:normal;font-variant:normal;font-weight:300;font-stretch:expanded;line-height:94.99999881%;font-family:'Novecento wide';-inkscape-font-specification:'Novecento wide Light Expanded';text-align:center;text-anchor:middle;fill:#ffffff;fill-opacity:1"
           id="path4373" />
        <path
           d="m 3160.4605,6536.8788 6.2905,0 39.2768,87.836 q 1.074,2.3781 2.6083,6.2137 1.6109,3.8357 2.6082,6.3672 0.9973,2.5315 1.074,2.5315 l 0.1534,0 q 0.077,0 1.074,-2.5315 0.9972,-2.5315 2.5315,-6.3672 1.611,-3.8356 2.6849,-6.2137 l 39.2769,-87.836 6.4439,0 -49.3263,110.006 -5.3698,0 -49.3263,-110.006 z"
           style="font-style:normal;font-variant:normal;font-weight:300;font-stretch:expanded;line-height:94.99999881%;font-family:'Novecento wide';-inkscape-font-specification:'Novecento wide Light Expanded';text-align:center;text-anchor:middle;fill:#ffffff;fill-opacity:1"
           id="path4375" />
        <path
           d="m 3255.8911,6646.8848 49.4796,-110.006 5.2165,0 49.4796,110.006 -6.4438,0 -15.4193,-34.5974 -60.4495,0 -15.4193,34.5974 -6.4438,0 z m 24.3946,-40.044 55.4632,0 -22.6302,-50.7838 q -0.9973,-2.2247 -2.3014,-5.2932 -1.2274,-3.1452 -1.9945,-4.8329 -0.6904,-1.7644 -0.7671,-1.7644 l -0.1535,0 q -0.077,0 -0.7671,1.7644 -0.6904,1.7644 -1.9945,4.8329 -1.2274,3.0685 -2.2247,5.2932 l -22.6302,50.7838 z"
           style="font-style:normal;font-variant:normal;font-weight:300;font-stretch:expanded;line-height:94.99999881%;font-family:'Novecento wide';-inkscape-font-specification:'Novecento wide Light Expanded';text-align:center;text-anchor:middle;fill:#ffffff;fill-opacity:1"
           id="path4377" />
        <path
           d="m 3379.3984,6646.8848 0,-110.006 5.6767,0 61.5236,82.8497 q 3.6822,4.9096 7.0575,9.5891 3.4521,4.6027 4.6028,6.137 1.1507,1.5342 1.2274,1.5342 l 0.1534,0 q 0.077,0 -0.077,-3.3753 -0.077,-3.4521 -0.2301,-10.1261 -0.1535,-6.674 -0.1535,-12.5809 l 0,-74.0277 5.9836,0 0,110.006 -5.6767,0 -61.9071,-83.3867 q -4.0658,-5.5233 -7.211,-9.9726 -3.1452,-4.4493 -4.1425,-5.9069 -0.9205,-1.4575 -0.9973,-1.4575 l -0.1534,0 q -0.077,0 0,3.3753 0.077,3.2987 0.1534,10.1261 0.1535,6.7507 0.1535,12.7343 l 0,74.488 -5.9836,0 z"
           style="font-style:normal;font-variant:normal;font-weight:300;font-stretch:expanded;line-height:94.99999881%;font-family:'Novecento wide';-inkscape-font-specification:'Novecento wide Light Expanded';text-align:center;text-anchor:middle;fill:#ffffff;fill-opacity:1"
           id="path4379" />
        <path
           d="m 3492.0893,6614.8189 q -4.4494,-10.7398 -4.4494,-22.9371 0,-12.1973 4.4494,-22.8604 4.526,-10.663 12.1973,-18.1809 7.6712,-7.5178 18.1809,-11.8137 10.5096,-4.2959 22.2466,-4.2959 15.9563,0 29.1508,7.6713 13.2713,7.6712 20.7892,20.8658 l -6.1371,1.611 q -6.5205,-11.3535 -18.1041,-17.7974 -11.5836,-6.5206 -25.6988,-6.5206 -10.5863,0 -19.9453,3.759 -9.3589,3.6822 -16.263,10.3562 -6.8275,6.5973 -10.8165,16.2631 -3.9124,9.6657 -3.9124,20.9425 0,14.8055 6.7507,26.6193 6.8275,11.8137 18.4111,18.2576 11.6603,6.3671 25.7754,6.3671 14.8056,0 26.9262,-7.3644 12.1973,-7.4411 18.6411,-20.1754 l 5.9069,1.7644 q -6.9808,14.7288 -20.7124,23.2439 -13.6549,8.5151 -30.7618,8.5151 -11.737,0 -22.2466,-4.2959 -10.5097,-4.3726 -18.1809,-11.8137 -7.6713,-7.5179 -12.1973,-18.1809 z"
           style="font-style:normal;font-variant:normal;font-weight:300;font-stretch:expanded;line-height:94.99999881%;font-family:'Novecento wide';-inkscape-font-specification:'Novecento wide Light Expanded';text-align:center;text-anchor:middle;fill:#ffffff;fill-opacity:1"
           id="path4381" />
        <path
           d="m 3601.2514,6536.8788 7.211,0 31.4522,39.1235 q 1.1506,1.3041 2.915,3.6822 1.8411,2.3014 2.9918,3.9123 1.2274,1.5343 1.3041,1.5343 l 0.1535,0 q 0.077,0 1.2274,-1.5343 1.2274,-1.5342 3.0685,-3.9123 1.9178,-2.4548 2.9151,-3.6822 l 31.2987,-39.1235 7.211,0 -42.8824,53.3153 0,56.6907 -5.9835,0 0,-56.6907 -42.8824,-53.3153 z"
           style="font-style:normal;font-variant:normal;font-weight:300;font-stretch:expanded;line-height:94.99999881%;font-family:'Novecento wide';-inkscape-font-specification:'Novecento wide Light Expanded';text-align:center;text-anchor:middle;fill:#ffffff;fill-opacity:1"
           id="path4383" />
      </g>
    </g>
  </g>
</svg>
