<?xml version="1.0" encoding="UTF-8" standalone="no"?>
<svg xmlns:dc="http://purl.org/dc/elements/1.1/" xmlns:cc="http://creativecommons.org/ns#" xmlns:rdf="http://www.w3.org/1999/02/22-rdf-syntax-ns#" xmlns:svg="http://www.w3.org/2000/svg" xmlns="http://www.w3.org/2000/svg" xmlns:sodipodi="http://sodipodi.sourceforge.net/DTD/sodipodi-0.dtd" xmlns:inkscape="http://www.inkscape.org/namespaces/inkscape" version="1.1" id="svg7062" viewBox="0 0 146.29262 187.5" height="200" width="156.04546" sodipodi:docname="TheCommonsConservancy-ornam-white-rotated.svg" inkscape:version="0.92.0 r15299">
  <sodipodi:namedview pagecolor="#ffffff" bordercolor="#666666" borderopacity="1" objecttolerance="10" gridtolerance="10" guidetolerance="10" inkscape:pageopacity="0" inkscape:pageshadow="2" inkscape:window-width="1920" inkscape:window-height="1025" id="namedview35" showgrid="false" fit-margin-top="0" fit-margin-left="0" fit-margin-right="0" fit-margin-bottom="0" units="px" inkscape:zoom="0.50032128" inkscape:cx="432.52191" inkscape:cy="117.25648" inkscape:window-x="-2" inkscape:window-y="-3" inkscape:window-maximized="1" inkscape:current-layer="svg7062"/>
  <title id="title1243">Logo The Commons Conservancy</title>
  <defs id="defs7064"/>
  <metadata id="metadata7067">
    <rdf:RDF>
      <cc:Work rdf:about="">
        <dc:format>image/svg+xml</dc:format>
        <dc:type rdf:resource="http://purl.org/dc/dcmitype/StillImage"/>
        <dc:title>Logo The Commons Conservancy</dc:title>
        <dc:creator>
          <cc:Agent>
            <dc:title>Michiel Leenaars</dc:title>
          </cc:Agent>
        </dc:creator>
        <dc:rights>
          <cc:Agent>
            <dc:title>The Commons Conservancy</dc:title>
          </cc:Agent>
        </dc:rights>
        <dc:language>English</dc:language>
        <dc:date>2016</dc:date>
      </cc:Work>
    </rdf:RDF>
  </metadata>
  <g id="g105" transform="matrix(0.40761646,0,0,0.40761646,-97.356244,26.884923)">
    <path inkscape:connector-curvature="0" id="leftBar" d="M 238.84277,155.18265 386.01449,394.03482 430.51317,366.61641 311.09387,172.80498 503.69968,54.128534 475.94727,9.0877894 Z" style="font-style:normal;font-variant:normal;font-weight:300;font-stretch:normal;font-size:medium;line-height:125%;font-family:Orbitron;-inkscape-font-specification:'Orbitron Light';letter-spacing:0px;word-spacing:0px;fill:#ffffff;fill-opacity:1;stroke:none;stroke-width:1px;stroke-linecap:butt;stroke-linejoin:miter;stroke-opacity:1"/>
    <path id="rightBar" transform="scale(0.9375)" d="M 637.58984,-70.353516 530.22461,-4.1992188 559.82617,43.84375 637.58984,-4.0722656 Z" style="font-style:normal;font-variant:normal;font-weight:300;font-stretch:normal;font-size:medium;line-height:125%;font-family:Orbitron;-inkscape-font-specification:'Orbitron Light';letter-spacing:0px;word-spacing:0px;fill:#ffffff;fill-opacity:1;stroke:none;stroke-width:1.06666672px;stroke-linecap:butt;stroke-linejoin:miter;stroke-opacity:1" inkscape:connector-curvature="0"/>
    <path id="leftC" transform="scale(0.9375)" d="m 601.60742,103.88086 c -1.53711,-0.005 -3.08109,0.015 -4.63086,0.0586 -24.69048,0.63205 -48.02654,7.72039 -70.00976,21.26563 -16.17036,9.96356 -29.67138,22.36487 -40.50391,37.20508 -10.83259,14.84011 -18.34419,30.69491 -22.53125,47.56445 -4.1869,16.86957 -4.87091,34.57072 -2.05469,53.10351 2.92185,18.46774 9.55983,36.1038 19.91407,52.90821 9.64131,15.64736 21.40573,28.78446 35.28906,39.41601 l 13.36523,-8.23437 c -14.08152,-9.95139 -26.07982,-22.94053 -35.97265,-38.99609 -9.57284,-15.53622 -15.76495,-31.62375 -18.58008,-48.26172 -2.70947,-16.70296 -2.16331,-32.49586 1.64258,-47.38086 3.84637,-15.05579 10.65374,-29.09353 20.42187,-42.11133 9.70309,-13.12355 21.84865,-24.17737 36.43359,-33.16406 19.44667,-11.98231 39.91593,-18.40019 61.41016,-19.25 14.58006,-0.65006 28.50882,1.2658 41.78906,5.73632 v -14.95898 c -11.5825,-3.22149 -23.57568,-4.85819 -35.98242,-4.90039 z" style="font-style:normal;font-variant:normal;font-weight:normal;font-stretch:normal;font-size:357.5239563px;line-height:125%;font-family:Sigmar;-inkscape-font-specification:Sigmar;letter-spacing:0px;word-spacing:0px;fill:#ffffff;fill-opacity:0.56353592;stroke:none;stroke-width:1.06666672px;stroke-linecap:butt;stroke-linejoin:miter;stroke-opacity:1" inkscape:connector-curvature="0"/>
    <path id="rightC" transform="scale(0.9375)" d="m 637.58984,67.671875 c -11.3219,3.532969 -22.32721,8.577974 -33.00976,15.160156 -16.17026,9.963505 -29.67139,22.362919 -40.50391,37.203129 -10.8325,14.84006 -18.34224,30.69687 -22.52929,47.5664 -4.18692,16.86957 -4.87287,34.57071 -2.05665,53.10352 2.92184,18.46773 9.56178,36.1038 19.91602,52.9082 8.73423,14.17521 19.21601,26.28299 31.43164,36.3418 l 13.19727,-8.13086 c -12.35464,-9.52249 -23.0107,-21.52181 -31.94727,-36.02539 -9.57277,-15.53613 -15.76689,-31.62375 -18.58203,-48.26172 -2.70947,-16.70296 -2.16136,-32.49586 1.64453,-47.38086 3.84637,-15.05579 10.65375,-29.09157 20.42188,-42.10937 9.70309,-13.12356 21.84668,-24.17932 36.43164,-33.166021 8.3399,-5.138733 16.8694,-9.246429 25.58593,-12.33789 z" style="font-style:normal;font-variant:normal;font-weight:normal;font-stretch:normal;font-size:357.5239563px;line-height:125%;font-family:Sigmar;-inkscape-font-specification:Sigmar;letter-spacing:0px;word-spacing:0px;fill:#ffffff;fill-opacity:1;stroke:none;stroke-width:1.06666672px;stroke-linecap:butt;stroke-linejoin:miter;stroke-opacity:1" inkscape:connector-curvature="0"/>
  </g>
</svg>